<?xml version="1.0" encoding="UTF-8"?>
<svg width="352px" height="95px" viewBox="0 0 352 95" version="1.1" xmlns="http://www.w3.org/2000/svg" xmlns:xlink="http://www.w3.org/1999/xlink">
    <!-- Generator: sketchtool 55.2 (78181) - https://sketchapp.com -->
    <title>3eeaee07-07ee-4178-9966-c1cba6b9c7ad@1.00x</title>
    <desc>Created with sketchtool.</desc>
    <g id="1-Logo" stroke="none" stroke-width="1" fill="none" fill-rule="evenodd">
        <g id="Logo/Horizontal/Large/Master">
            <g id="Group-1279">
                <path d="M263,33.2202112 L246.439189,33.2202112 L246.439189,54.1674208 C246.439189,57.2533937 247.504505,58.188537 251.668919,58.188537 L261.063063,58.188537 L261.063063,71 L250.216216,71 C237.335586,71 232.105856,66.1372549 232.105856,55.0090498 L232.105856,33.2202112 L220,33.2202112 L220,21.4374057 L232.105856,21.4374057 L232.105856,9 L246.439189,9 L246.439189,21.4374057 L263,21.4374057 L263,33.2202112 Z M158,45.4982491 C158,31.1104621 169.704318,20 185.996516,20 C202.385116,20 214,31.1104621 214,45.4982491 C214,59.886149 202.385116,71 185.996516,71 C169.704318,71 158,59.886149 158,45.4982491 M200.138798,45.4982491 C200.138798,37.6688395 194.614759,31.8387189 185.996516,31.8387189 C177.384079,31.8387189 171.861202,37.6688395 171.861202,45.4982491 C171.861202,53.3311605 177.384079,59.1577793 185.996516,59.1577793 C194.614759,59.1577793 200.138798,53.3311605 200.138798,45.4982491 M135.509305,20.9209063 L135.509305,25.7049472 L135.320796,25.7049472 C131.709852,22.0212085 125.727908,20 118.599688,20 C103.305863,20 92,31.0408969 92,45.3052494 C92,60.117882 103.589212,70.9725791 119.075059,70.9725791 C126.011257,70.9725791 131.803521,68.8599717 135.320796,65.0812053 L135.509305,65.0812053 L135.509305,70.0128906 C135.509305,76.6388576 129.618689,81.510782 121.830101,81.510782 C113.972433,81.510782 109.407235,79.3666499 105.432152,75.6968592 L96.3368802,84.1717829 C102.43474,90.4427002 111.624851,94 122.120476,94 C138.079352,94 149,83.6304201 149,69.8300928 L149,20.9209063 L135.509305,20.9209063 Z M134.943778,48.2438489 C134.943778,54.2301369 128.667947,59.0141778 120.690851,59.0141778 C111.66466,59.0141778 106.060905,53.861026 106.060905,45.3052494 C106.060905,37.3927805 112.045191,31.9619166 121.261062,31.9619166 C128.577791,31.9619166 134.943778,36.9322707 134.943778,42.5423036 L134.943778,48.2438489 Z M270,71 L270,22 L285,22 L285,71 L270,71 Z M269,14 L269,0 L284,0 L284,14 L269,14 Z M289,71 L311.184451,46.2226415 L289.57622,22 L307.439024,22 L320.307927,37.809434 L320.5,37.809434 L333.560976,22 L351.42378,22 L329.815549,46.2226415 L352,71 L334.137195,71 L320.5,54.5433962 L320.307927,54.5433962 L306.862805,71 L289,71 Z" id="tix" fill="#1C1D1D"></path>
                <path d="M80,54.9982055 C80,77.0896504 62.0918437,94.9982055 40.0004985,94.9982055 C17.9101502,94.9982055 0,77.0896504 0,54.9982055 C0,32.9085551 17.9101502,15 40.0004985,15 C62.0918437,15 80,32.9085551 80,54.9982055" id="Fill-1276" fill="#DF1995"></path>
                <path d="M52.4531259,58.0704644 C51.8879557,58.6362466 50.967769,58.6362466 50.4015787,58.0704644 L48.6366973,56.3051749 C48.070507,55.7376584 48.070507,54.8194099 48.6366973,54.2536277 L50.4015787,52.4884402 C50.967769,51.922556 51.8859154,51.9208217 52.4531259,52.4884402 L54.2190275,54.2536277 C54.7841976,54.8194099 54.7841976,55.7376584 54.2190275,56.3051749 L52.4531259,58.0704644 Z M46.5994324,52.217587 C46.0332421,52.7834713 45.1150957,52.7834713 44.5478852,52.217587 L42.784024,50.4506653 C42.2168135,49.884883 42.2168135,48.9666346 42.7819836,48.4008524 L44.5478852,46.6338286 C45.1150957,46.0680464 46.0332421,46.0680464 46.5994324,46.6338286 L48.3663542,48.4008524 C48.9315243,48.9666346 48.9315243,49.884883 48.3663542,50.4506653 L46.5994324,52.217587 Z M40.7467591,46.3630774 C40.1805688,46.930696 39.2603821,46.930696 38.6941918,46.3630774 L36.9293103,44.59789 C36.3620999,44.0320057 36.3620999,43.1138593 36.9293103,42.5462408 L38.6941918,40.7810533 C39.2603821,40.2152711 40.1805688,40.2152711 40.7467591,40.7810533 L42.5116405,42.5462408 C43.078851,43.1138593 43.078851,44.0320057 42.5116405,44.59789 L40.7467591,46.3630774 Z M55.8176224,63.4857939 L54.4893706,62.1580522 C53.9242004,61.592168 53.9242004,60.6740216 54.4893706,60.106403 L56.2552722,58.3412155 C56.8224826,57.7753313 57.740629,57.7753313 58.3078395,58.3412155 L59.3167804,59.3513806 C60.2257453,58.2197142 61.1612345,57.1140619 62.0242921,55.9372022 C64.2890533,52.8459052 64.70732,48.6559951 62.7537085,45.3615837 C62.2885143,44.5788129 61.7468079,43.8671474 61.2377467,43.1294678 C58.6087875,45.2712993 54.7495121,45.149798 52.3011216,42.7007954 C49.8496707,40.2499566 49.7282713,36.3914973 51.870613,33.761824 C51.1330353,33.2515386 50.4230021,32.7135048 49.638497,32.2483106 C46.3443917,30.2921487 42.1535634,30.7105174 39.0645108,32.9755846 C37.8862229,33.8382341 36.7803666,34.7738253 35.6490062,35.6833004 L36.6569269,36.6934655 C37.2241373,37.2593497 37.2241373,38.1774961 36.6569269,38.7451146 L34.8930656,40.5103021 C34.3258552,41.0760843 33.4077088,41.0760843 32.8404983,40.5103021 L31.5142868,39.1824584 C26.523651,43.664033 21.9818867,48.5969277 17.9757079,54.0626533 C15.7109467,57.1539502 15.29268,61.3439624 17.2462915,64.6383737 C17.7114857,65.4211446 18.2511518,66.13281 18.7622533,66.8704897 C21.3912125,64.7285561 25.2494678,64.8500575 27.6988784,67.299162 C30.1493091,69.7500009 30.2717287,73.6084602 28.129387,76.2380315 C28.8669647,76.7483169 29.5769979,77.2864527 30.361503,77.7532791 C33.6556083,79.7094411 37.8454164,79.2894401 40.9354892,77.0242709 C46.402541,73.0182961 51.3340074,68.4759197 55.8176224,63.4857939 L55.8176224,63.4857939 Z" id="Fill-1278" fill="#FFFFFF"></path>
            </g>
        </g>
    </g>
</svg>