<svg fill="none" height="29" viewBox="0 0 103 29" width="103" xmlns="http://www.w3.org/2000/svg"><g clip-rule="evenodd" fill="#fff" fill-rule="evenodd"><path d="m17.5003 15.1659-.814.7851c-.2654.2503-.6793.2503-.9446 0l-.8071-.8071c-.2503-.264-.2503-.6792 0-.9432l.8071-.8141c.2653-.2502.6792-.2502.9446 0l.814.8347c.2502.2654.2502.6792 0 .9446zm-4.4481-1.9044-.8071-.814c-.2461-.264-.2461-.6737 0-.9377l.814-.814c.2654-.2503.6792-.2503.9446 0l.814.814c.2461.264.2461.6737 0 .9377l-.8209.814c-.2653.2503-.6792.2503-.9446 0zm-1.7448-2.6895c-.2654.2503-.6792.2503-.9446 0l-.81399-.81399c-.25025-.26537-.25025-.67925 0-.94463l.81399-.80025c.2654-.25025.6792-.25025.9446 0l.8071.80713c.2489.26537.2489.67925 0 .94463zm10.117-.4895c-.1718-.28599-.3616-.55411-.5486-.82224-.4853.26263-1.034.42763-1.6266.42763-1.8974 0-3.4374-1.54001-3.4374-3.43752 0-.59262.165-1.13987.4276-1.628-.2805-.19525-.5651-.39188-.836-.561-1.5331-.85388-3.4264-.72601-4.8275.33137-.5445.40013-1.05597.82776-1.57296 1.24713l.46199.46338c.25025.26538.25025.67788 0 .94463l-.8071.814c-.264.24888-.67786.24888-.94323 0l-.61324-.61463c-2.29758 2.06251-4.37791 4.35465-6.207992 6.84205-1.054603 1.4011-1.1866 3.2931-.336868 4.829.171871.2874.364367.5582.55136.8291.49087-.2681 1.04498-.4345 1.64172-.4345 1.89883 0 3.43742 1.5386 3.43742 3.4375 0 .5954-.16499 1.1482-.43174 1.6363.275.1925.55412.385.82086.5514 1.53309.8552 3.42638.726 4.82748-.3314 2.4846-1.8123 4.7753-3.8789 6.8336-6.1655l-.6132-.6078c-.2502-.264-.2502-.6779 0-.9432l.814-.814c.264-.2462.6737-.2462.9377 0l.4689.4688c.4139-.5238.8483-1.034 1.2402-1.573 1.0835-1.4149 1.2155-3.3385.3396-4.8895z"/><path d="m47.2607 14.0868c0-4.45042 3.4778-7.88716 8.3203-7.88716 4.8689 0 8.3203 3.43674 8.3203 7.88716 0 4.4504-3.4514 7.8883-8.3203 7.8883-4.8425 0-8.3203-3.4379-8.3203-7.8883zm12.5224 0c0-2.4219-1.6429-4.22466-4.2021-4.22466-2.5604 0-4.2032 1.80276-4.2032 4.22466 0 2.423 1.6428 4.2258 4.2032 4.2258 2.5592 0 4.2021-1.8028 4.2021-4.2258zm-18.956-7.89107h3.9768v15.35747c0 4.2515-3.2194 7.4468-7.925 7.4468-3.0947 0-5.803-1.0953-7.5993-3.0277l2.6807-2.6119c1.1703 1.1311 2.5173 1.7927 4.8336 1.7927 2.2965 0 4.0332-1.5021 4.0332-3.544v-1.5178h-.0563c-1.0367 1.1624-2.7447 1.8151-4.7895 1.8151-4.5642 0-7.9813-3.3462-7.9813-7.9107 0-4.39341 3.3321-7.7955 7.8411-7.7955 2.101 0 3.8642.62364 4.9297 1.75693h.0563zm-.1678 8.70747v-1.758c0-1.729-1.8781-3.26015-4.0343-3.26015-2.716 0-4.4792 1.67315-4.4792 4.11065 0 2.6376 1.6506 4.2247 4.3114 4.2247 2.3527 0 4.2021-1.4742 4.2021-3.3172zm32.05-4.739v6.308c0 .9287.3058 1.2104 1.5026 1.2104h2.6984v3.8569h-3.1168c-3.6975 0-5.2013-1.4641-5.2013-4.8147v-6.5606h-3.4756v-3.54734h3.4756v-3.74409h4.1171v3.74409h4.7574v3.54734zm6.6759 11.376v-14.92267h4.117v14.92267zm-.0839-17.37253v-4.16767h4.2561v4.16767zm11.8774 9.82533-6.2578-7.37637h5.1736l3.7263 4.81477h.0552l3.7825-4.81477h5.1735l-6.2577 7.37637 6.4257 7.5463h-5.1737l-3.9503-5.0115h-.0552l-3.8952 5.0115h-5.1726z"/></g></svg>