<svg xmlns="http://www.w3.org/2000/svg" width="40" height="40" viewBox="0 0 40 40" fill="none">
<path fill-rule="evenodd" clip-rule="evenodd" d="M36.6413 25.7885L36.1044 22.6885C35.9818 21.9837 35.4294 21.4408 34.727 21.3063C33.4365 21.0623 31.4781 20.3206 31.0876 18.0753C30.6995 15.8277 32.2936 14.4705 33.427 13.8062C34.0448 13.4443 34.3817 12.7467 34.2591 12.0419L33.7222 8.94185C33.5627 8.01803 32.6829 7.39897 31.7579 7.5585L17.2672 10.0692L4.74202 12.2395C3.8182 12.4002 3.19795 13.2788 3.35867 14.2026L3.89558 17.3027C4.0182 18.0087 4.57059 18.5515 5.27298 18.6837C6.56347 18.9289 8.52184 19.6694 8.91113 21.917C9.30042 24.1635 7.70635 25.5207 6.573 26.185C5.95513 26.5481 5.61822 27.2445 5.74084 27.9493L6.27776 31.0493C6.43728 31.9731 7.31706 32.5934 8.24088 32.4339L35.2579 27.7517C36.1818 27.5933 36.802 26.7112 36.6413 25.7885Z" fill="#66CEE6"/>
<path fill-rule="evenodd" clip-rule="evenodd" d="M20.4162 23.8528C20.1258 23.8528 19.8353 23.7421 19.6127 23.5207C19.1686 23.0766 19.1698 22.3564 19.6138 21.9123L25.9247 15.6098C26.3687 15.167 27.0878 15.167 27.5318 15.611C27.9759 16.0551 27.9747 16.7753 27.5306 17.2194L21.2198 23.5219C20.9972 23.7421 20.7079 23.8528 20.4162 23.8528Z" fill="#B3E7F3"/>
<path fill-rule="evenodd" clip-rule="evenodd" d="M20.4092 23.8527C20.1187 23.8527 19.8282 23.7419 19.6056 23.5205L16.0996 20.0145C15.6555 19.5705 15.6555 18.8514 16.0996 18.4073C16.5436 17.9645 17.2627 17.9645 17.7056 18.4073L21.2127 21.9133C21.6568 22.3562 21.6568 23.0777 21.2127 23.5205C20.9901 23.7419 20.6996 23.8527 20.4092 23.8527Z" fill="#B3E7F3"/>
<path fill-rule="evenodd" clip-rule="evenodd" d="M12.585 26.7941C12.2136 26.8584 11.8612 26.6096 11.7981 26.2381L11.6814 25.5679C11.6171 25.1965 11.866 24.8441 12.2362 24.7798C12.6076 24.7155 12.9588 24.9643 13.0231 25.3346L13.1398 26.006C13.2041 26.3762 12.9565 26.7286 12.585 26.7941ZM13.2161 30.4407C12.8459 30.505 12.4935 30.2561 12.4292 29.8859L12.3125 29.2145C12.2494 28.8442 12.497 28.4906 12.8673 28.4275C13.2387 28.3621 13.5923 28.6109 13.6542 28.9823L13.7721 29.6526C13.8363 30.024 13.5875 30.3776 13.2161 30.4407ZM11.8865 22.7656C11.5174 22.8311 11.165 22.5823 11.0995 22.2108L10.9829 21.5406C10.9198 21.1691 11.1674 20.8168 11.5376 20.7537C11.9091 20.6894 12.2626 20.937 12.3257 21.3084L12.4424 21.9787C12.5067 22.3501 12.2579 22.7025 11.8865 22.7656ZM11.1887 18.7393C10.8197 18.8036 10.4661 18.5548 10.4018 18.1845L10.2851 17.5131C10.2208 17.1428 10.4697 16.7904 10.8399 16.725C11.2113 16.6607 11.5637 16.9095 11.628 17.2809L11.7447 17.9512C11.8078 18.3226 11.5601 18.675 11.1887 18.7393ZM10.491 14.7119C10.1208 14.7762 9.76841 14.5273 9.70293 14.1571L9.58745 13.4857C9.52436 13.1154 9.77198 12.763 10.1422 12.6976C10.5137 12.6345 10.866 12.8821 10.9291 13.2535L11.0458 13.9238C11.1113 14.2952 10.8625 14.6476 10.491 14.7119Z" fill="#00AFDA"/>
</svg>